<svg xmlns="http://www.w3.org/2000/svg" width="22.268" height="22.268" viewBox="0 0 22.268 22.268">
  <g id="Icon" transform="translate(-1 -1)">
    <path id="Trazado_40817" data-name="Trazado 40817" d="M13.852,1.613a.743.743,0,0,0-.649-.562,11.179,11.179,0,0,0-2.138,0,.743.743,0,0,0-.649.562L9.8,4.118a8.36,8.36,0,0,0-1.686.7S5.91,3.48,5.91,3.48a.741.741,0,0,0-.857.062A11.109,11.109,0,0,0,3.541,5.053a.741.741,0,0,0-.062.857L4.816,8.116a8.376,8.376,0,0,0-.7,1.685l-2.505.615a.743.743,0,0,0-.562.649,11.179,11.179,0,0,0,0,2.138.743.743,0,0,0,.562.649l2.505.615a8.36,8.36,0,0,0,.7,1.686S3.48,18.358,3.48,18.358a.741.741,0,0,0,.062.857,11.109,11.109,0,0,0,1.512,1.512.741.741,0,0,0,.857.062l2.206-1.336a8.376,8.376,0,0,0,1.685.7l.615,2.505a.743.743,0,0,0,.649.562,11.179,11.179,0,0,0,2.138,0,.743.743,0,0,0,.649-.562l.615-2.505a8.36,8.36,0,0,0,1.686-.7s2.205,1.337,2.205,1.337a.741.741,0,0,0,.857-.062,11.109,11.109,0,0,0,1.512-1.512.741.741,0,0,0,.062-.857l-1.336-2.206a8.376,8.376,0,0,0,.7-1.685l2.505-.615a.743.743,0,0,0,.562-.649,11.179,11.179,0,0,0,0-2.138.743.743,0,0,0-.562-.649L20.149,9.8a8.36,8.36,0,0,0-.7-1.686S20.788,5.91,20.788,5.91a.741.741,0,0,0-.062-.857,11.109,11.109,0,0,0-1.512-1.512.741.741,0,0,0-.857-.062L16.152,4.816a8.376,8.376,0,0,0-1.685-.7l-.615-2.505ZM12.134,7.794a4.34,4.34,0,1,0,4.34,4.34A4.342,4.342,0,0,0,12.134,7.794Z" fill="#95a5a6" fill-rule="evenodd"/>
    <path id="Trazado_40818" data-name="Trazado 40818" d="M16,1V7.794a4.34,4.34,0,0,1,0,8.68v6.794q.536,0,1.069-.051a.743.743,0,0,0,.649-.562l.615-2.505a8.36,8.36,0,0,0,1.686-.7s2.205,1.337,2.205,1.337a.741.741,0,0,0,.857-.062,11.109,11.109,0,0,0,1.512-1.512.741.741,0,0,0,.062-.857l-1.336-2.206a8.376,8.376,0,0,0,.7-1.685l2.505-.615a.743.743,0,0,0,.562-.649,11.179,11.179,0,0,0,0-2.138.743.743,0,0,0-.562-.649L24.016,9.8a8.36,8.36,0,0,0-.7-1.686S24.654,5.91,24.654,5.91a.741.741,0,0,0-.062-.857A11.109,11.109,0,0,0,23.08,3.541a.741.741,0,0,0-.857-.062L20.018,4.816a8.376,8.376,0,0,0-1.685-.7l-.615-2.505a.743.743,0,0,0-.649-.562Q16.536,1,16,1Z" transform="translate(-3.866)" fill="#7f8c8d" fill-rule="evenodd"/>
  </g>
</svg>
